<?xml version="1.0" encoding="UTF-8" standalone="no"?>
<!-- Created with Inkscape (http://www.inkscape.org/) -->

<svg
   width="27.790567mm"
   height="30.431898mm"
   viewBox="0 0 27.790567 30.431898"
   version="1.1"
   id="svg1"
   inkscape:export-filename="logo.svg"
   inkscape:export-xdpi="96"
   inkscape:export-ydpi="96"
   xmlns:inkscape="http://www.inkscape.org/namespaces/inkscape"
   xmlns:sodipodi="http://sodipodi.sourceforge.net/DTD/sodipodi-0.dtd"
   xmlns="http://www.w3.org/2000/svg"
   xmlns:svg="http://www.w3.org/2000/svg">
  <sodipodi:namedview
     id="namedview1"
     pagecolor="#ffffff"
     bordercolor="#000000"
     borderopacity="0.25"
     inkscape:showpageshadow="2"
     inkscape:pageopacity="0.0"
     inkscape:pagecheckerboard="0"
     inkscape:deskcolor="#d1d1d1"
     inkscape:document-units="mm"
     inkscape:export-bgcolor="#ffffff00" />
  <defs
     id="defs1" />
  <g
     inkscape:label="Layer 1"
     inkscape:groupmode="layer"
     id="layer1"
     transform="translate(-74.278583,-69.511846)">
    <path
       d="m 92.05065,97.587883 c 4.05253,-2.70795 6.37595,-4.82895 7.56352,-6.90456 1.10507,-1.93142 1.0918,-1.98071 -0.78878,-2.93003 -1.53953,-0.77715 -2.10395,-0.84465 -3.2023,-0.38298 l -0.46302,0.19463 v -0.5222 -0.5222 l 1.32292,-0.54978 1.32291,-0.54978 v -1.32482 -1.32482 l -2.44739,1.01819 -2.4474,1.01819 -0.0748,2.9378 -0.0748,2.9378 h 0.26721 c 0.14696,0 1.05801,-0.29766 2.02454,-0.66146 1.96442,-0.7394 2.2235,-0.7838 2.2235,-0.38103 0,0.49058 -2.7215,3.18608 -4.30489,4.26375 l -1.52676,1.03914 0.0716,-5.47376 0.0716,-5.47375 3.28231,-1.41418 c 1.80527,-0.7778 3.5137,-1.48762 3.79649,-1.57738 l 0.51418,-0.16319 -0.0902,2.83183 -0.0902,2.83182 0.97523,0.50032 c 0.59234,0.30389 1.03839,0.39812 1.13611,0.24 0.21038,-0.3404 0.65269,-5.71996 0.6582,-8.00534 l 0.004,-1.78594 h -0.35879 c -0.37504,0 -10.28468,3.97721 -11.58481,4.64953 l -0.74777,0.38669 -0.0705,7.07304 -0.0705,7.07303 h -0.66145 -0.66146 l -0.0705,-7.07442 -0.0705,-7.07443 -1.03267,-0.52683 c -1.66386,-0.84884 -10.789742,-4.50661 -11.243676,-4.50661 h -0.415018 v 2.51355 c 0,1.38244 0.06349,2.51354 0.141087,2.51354 0.0776,0 0.728484,-0.29766 1.446413,-0.66146 1.692106,-0.85746 1.488372,-0.88573 5.307643,0.73668 l 3.291311,1.39814 0.079,1.8101 0.079,1.81009 -0.43136,-0.16552 c -0.23725,-0.0911 -0.53416,-0.16553 -0.65981,-0.16553 -0.12565,0 -0.26474,-0.55845 -0.30909,-1.241 l -0.0806,-1.24099 -2.79565,-1.15843 -2.795646,-1.15842 -1.503832,0.66507 -1.503833,0.66506 v 0.7722 c 0,1.46287 0.542063,3.6244 1.332521,5.31357 l 0.792398,1.69332 1.803209,1.7713 c 1.613721,1.58517 8.687043,6.618321 9.301043,6.618321 0.13426,0 1.83065,-1.06014 3.76974,-2.355861 z m -9.293319,-4.2661 c -3.078584,-2.31978 -5.03399,-5.20912 -5.053478,-7.46711 -0.0076,-0.87511 0.07292,-0.88177 1.954551,-0.16171 l 1.478752,0.56588 v 1.10609 1.10609 l 1.984375,0.87207 1.984379,0.87207 v 2.35075 c 0,1.29291 -0.0522,2.35074 -0.11601,2.35074 -0.0638,0 -1.06846,-0.71769 -2.232569,-1.59487 z m 12.667329,-15.55674 6.48229,-2.60286 0.0811,-0.67852 0.0811,-0.67852 -1.13939,-0.42402 c -2.5466,-0.94773 -11.95674,-3.8648 -12.48185,-3.86927 -0.31008,-0.003 -3.51745,0.91097 -7.127481,2.03027 l -6.563692,2.03508 -0.239077,0.44672 -0.239077,0.44672 0.320477,0.41859 c 0.404415,0.52822 13.41009,5.74154 13.94652,5.59046 0.21828,-0.0615 3.3139,-1.28307 6.87917,-2.71465 z m -11.47555,-1.57688 -3.934921,-1.49059 1.087048,-0.36235 1.087048,-0.36234 1.657245,0.76886 c 0.91149,0.42288 2.64805,1.17185 3.85902,1.66438 l 2.20177,0.89552 -0.48198,0.18995 c -0.88225,0.34771 -1.5127,0.19762 -5.47523,-1.30343 z m 6.18388,-1.39718 c -1.38245,-0.56755 -2.93026,-1.22842 -3.43958,-1.4686 l -0.92605,-0.43669 0.92605,-0.34147 c 1.46772,-0.54122 2.03415,-0.45817 6.06572,0.88934 l 3.80288,1.27108 -1.51826,0.58101 c -1.9232,0.73596 -1.90985,0.73731 -4.91076,-0.49467 z"
       style="fill:#000000"
       id="path1" />
  </g>
</svg>
